<svg width="294" height="294" viewBox="0 0 294 294" fill="none" xmlns="http://www.w3.org/2000/svg">
<g clip-path="url(#clip0_3240_4326)">
<path d="M103.248 230.496L59.387 254.421C56.8131 255.825 54.5 257.55 52.3477 259.43C77.9201 280.992 110.931 294 146.999 294C182.8 294 215.601 281.186 241.101 259.919C238.749 257.933 236.198 256.147 233.368 254.738L186.401 231.256C180.332 228.222 176.499 222.02 176.499 215.236V196.808C177.819 195.305 179.328 193.375 180.942 191.095C187.344 182.053 192.186 172.107 195.542 161.673C201.567 159.814 206.004 154.251 206.004 147.638V127.968C206.004 123.641 204.079 119.775 201.089 117.068V88.6331C201.089 88.6331 206.931 44.3833 147.005 44.3833C87.0785 44.3833 92.9197 88.6331 92.9197 88.6331V117.068C89.9242 119.775 88.0049 123.641 88.0049 127.968V147.638C88.0049 152.819 90.7285 157.379 94.8057 160.014C99.7205 181.41 112.59 196.808 112.59 196.808V214.781C112.584 221.327 109.001 227.357 103.248 230.496Z" fill="#DCDCDC"/>
<path d="M149.513 0.02189C68.3408 -1.3649 1.4087 63.3151 0.0219045 144.487C-0.765794 190.512 19.7476 231.877 52.4094 259.385C54.545 257.521 56.836 255.813 59.3822 254.426L103.244 230.501C108.996 227.362 112.58 221.332 112.58 214.775V196.802C112.58 196.802 99.7046 181.403 94.7953 160.008C90.7237 157.373 87.9945 152.819 87.9945 147.632V127.962C87.9945 123.635 89.9193 119.769 92.9093 117.062V88.6268C92.9093 88.6268 87.0681 44.3771 146.994 44.3771C206.92 44.3771 201.079 88.6268 201.079 88.6268V117.062C204.075 119.769 205.994 123.635 205.994 127.962V147.632C205.994 154.244 201.556 159.808 195.532 161.666C192.176 172.101 187.333 182.047 180.932 191.089C179.318 193.369 177.809 195.299 176.488 196.802V215.23C176.488 222.014 180.322 228.221 186.39 231.25L233.358 254.731C236.176 256.14 238.722 257.921 241.069 259.901C272.743 233.486 293.206 193.99 293.966 149.513C295.364 68.3408 230.69 1.40868 149.513 0.02189Z" fill="#9DA3B3"/>
</g>
<defs>
<clipPath id="clip0_3240_4326">
<rect width="294" height="294" fill="white"/>
</clipPath>
</defs>
</svg>
